{"asset":{"version":"2.0","generator":"Blockbench 4.10.4 glTF exporter"},"scenes":[{"nodes":[10],"name":"blockbench_export"}],"scene":0,"nodes":[{"name":"cube","mesh":0},{"translation":[0,0.03125000000000001,0],"name":"bone","children":[0]},{"translation":[0,0.18750000000000008,0],"name":"cube","mesh":1},{"name":"nei","children":[2]},{"translation":[0,0.0625,0],"name":"cube","mesh":2},{"name":"bone2","children":[4]},{"translation":[0,0.18750000000000008,0],"name":"cube","mesh":3},{"name":"bone3","children":[6]},{"name":"wai","children":[5,7]},{"name":"main","children":[1,3,8]},{"children":[9]}],"bufferViews":[{"buffer":0,"byteOffset":0,"byteLength":288,"target":34962,"byteStride":12},{"buffer":0,"byteOffset":288,"byteLength":288,"target":34962,"byteStride":12},{"buffer":0,"byteOffset":576,"byteLength":192,"target":34962,"byteStride":8},{"buffer":0,"byteOffset":768,"byteLength":72,"target":34963},{"buffer":0,"byteOffset":840,"byteLength":288,"target":34962,"byteStride":12},{"buffer":0,"byteOffset":1128,"byteLength":288,"target":34962,"byteStride":12},{"buffer":0,"byteOffset":1416,"byteLength":192,"target":34962,"byteStride":8},{"buffer":0,"byteOffset":1608,"byteLength":72,"target":34963},{"buffer":0,"byteOffset":1680,"byteLength":288,"target":34962,"byteStride":12},{"buffer":0,"byteOffset":1968,"byteLength":288,"target":34962,"byteStride":12},{"buffer":0,"byteOffset":2256,"byteLength":192,"target":34962,"byteStride":8},{"buffer":0,"byteOffset":2448,"byteLength":72,"target":34963},{"buffer":0,"byteOffset":2520,"byteLength":288,"target":34962,"byteStride":12},{"buffer":0,"byteOffset":2808,"byteLength":288,"target":34962,"byteStride":12},{"buffer":0,"byteOffset":3096,"byteLength":192,"target":34962,"byteStride":8},{"buffer":0,"byteOffset":3288,"byteLength":72,"target":34963},{"buffer":0,"byteOffset":3360,"byteLength":16},{"buffer":0,"byteOffset":3376,"byteLength":48},{"buffer":0,"byteOffset":3424,"byteLength":16},{"buffer":0,"byteOffset":3440,"byteLength":64},{"buffer":0,"byteOffset":3504,"byteLength":16},{"buffer":0,"byteOffset":3520,"byteLength":48},{"buffer":0,"byteOffset":3568,"byteLength":16},{"buffer":0,"byteOffset":3584,"byteLength":64},{"buffer":0,"byteOffset":3648,"byteLength":16},{"buffer":0,"byteOffset":3664,"byteLength":48},{"buffer":0,"byteOffset":3712,"byteLength":12},{"buffer":0,"byteOffset":3724,"byteLength":36},{"buffer":0,"byteOffset":3760,"byteLength":16},{"buffer":0,"byteOffset":3776,"byteLength":64},{"buffer":0,"byteOffset":3840,"byteLength":16},{"buffer":0,"byteOffset":3856,"byteLength":48},{"buffer":0,"byteOffset":3904,"byteLength":8},{"buffer":0,"byteOffset":3912,"byteLength":32},{"buffer":0,"byteOffset":3944,"byteLength":16},{"buffer":0,"byteOffset":3960,"byteLength":48},{"buffer":0,"byteOffset":4008,"byteLength":12},{"buffer":0,"byteOffset":4020,"byteLength":36}],"buffers":[{"byteLength":4056,"uri":"data:application/octet-stream;base64,"}],"accessors":[{"bufferView":0,"componentType":5126,"count":24,"max":[0.1875,0.03125,0.1875],"min":[-0.1875,-0.03125,-0.1875],"type":"VEC3"},{"bufferView":1,"componentType":5126,"count":24,"max":[1,1,1],"min":[-1,-1,-1],"type":"VEC3"},{"bufferView":2,"componentType":5126,"count":24,"max":[0.74951171875,0.21826171875],"min":[0.00048828125,0.00048828125],"type":"VEC2"},{"bufferView":3,"componentType":5123,"count":36,"max":[23],"min":[0],"type":"SCALAR"},{"bufferView":4,"componentType":5126,"count":24,"max":[0.12437500059604645,0.09375,0.14000000059604645],"min":[-0.12437500059604645,-0.12812499701976776,-0.12437500059604645],"type":"VEC3"},{"bufferView":5,"componentType":5126,"count":24,"max":[1,1,1],"min":[-1,-1,-1],"type":"VEC3"},{"bufferView":6,"componentType":5126,"count":24,"max":[0.93701171875,0.53076171875],"min":[0.50048828125,0.31298828125],"type":"VEC2"},{"bufferView":7,"componentType":5123,"count":36,"max":[23],"min":[0],"type":"SCALAR"},{"bufferView":8,"componentType":5126,"count":24,"max":[0.15625,0.125,0.15625],"min":[-0.15625,0,-0.15625],"type":"VEC3"},{"bufferView":9,"componentType":5126,"count":24,"max":[1,1,1],"min":[-1,-1,-1],"type":"VEC3"},{"bufferView":10,"componentType":5126,"count":24,"max":[0.62451171875,0.43701171875],"min":[0.00048828125,0.21923828125],"type":"VEC2"},{"bufferView":11,"componentType":5123,"count":36,"max":[23],"min":[0],"type":"SCALAR"},{"bufferView":12,"componentType":5126,"count":24,"max":[0.15562500059604645,0.125,0.15562500059604645],"min":[-0.15562500059604645,-0.015625,-0.15562500059604645],"type":"VEC3"},{"bufferView":13,"componentType":5126,"count":24,"max":[1,1,1],"min":[-1,-1,-1],"type":"VEC3"},{"bufferView":14,"componentType":5126,"count":24,"max":[0.49951171875,0.62451171875],"min":[0.00048828125,0.43798828125],"type":"VEC2"},{"bufferView":15,"componentType":5123,"count":36,"max":[23],"min":[0],"type":"SCALAR"},{"bufferView":16,"componentType":5126,"count":4,"max":[3],"min":[0],"type":"SCALAR"},{"bufferView":17,"componentType":5126,"count":4,"max":[1,1,1],"min":[1,0.8899999856948853,1],"type":"VEC3"},{"bufferView":18,"componentType":5126,"count":4,"max":[3],"min":[0],"type":"SCALAR"},{"bufferView":19,"componentType":5126,"count":4,"max":[0,0,0.017452405765652657,1],"min":[0,0,-0.017452405765652657,0.9998477101325989],"type":"VEC4"},{"bufferView":20,"componentType":5126,"count":4,"max":[3],"min":[0],"type":"SCALAR"},{"bufferView":21,"componentType":5126,"count":4,"max":[0.0062500000931322575,0,0],"min":[0,0,0],"type":"VEC3"},{"bufferView":22,"componentType":5126,"count":4,"max":[3],"min":[0],"type":"SCALAR"},{"bufferView":23,"componentType":5126,"count":4,"max":[0,0,0.03489949554204941,1],"min":[0,0,-0.04361938685178757,0.9990482330322266],"type":"VEC4"},{"bufferView":24,"componentType":5126,"count":4,"max":[3],"min":[0],"type":"SCALAR"},{"bufferView":25,"componentType":5126,"count":4,"max":[0.012500000186264515,0,0],"min":[-0.012500000186264515,0,0],"type":"VEC3"},{"bufferView":26,"componentType":5126,"count":3,"max":[2.25],"min":[0],"type":"SCALAR"},{"bufferView":27,"componentType":5126,"count":3,"max":[1,1.100000023841858,1],"min":[1,1,1],"type":"VEC3"},{"bufferView":28,"componentType":5126,"count":4,"max":[2.25],"min":[0],"type":"SCALAR"},{"bufferView":29,"componentType":5126,"count":4,"max":[0.04361938685178757,0,0,1],"min":[-0.008726535364985466,0,0,0.9990482330322266],"type":"VEC4"},{"bufferView":30,"componentType":5126,"count":4,"max":[2.25],"min":[0],"type":"SCALAR"},{"bufferView":31,"componentType":5126,"count":4,"max":[0,0,0],"min":[0,-0.012500000186264515,0],"type":"VEC3"},{"bufferView":32,"componentType":5126,"count":2,"max":[2.25],"min":[0],"type":"SCALAR"},{"bufferView":33,"componentType":5126,"count":2,"max":[0,0,0,1],"min":[0,0,0,1],"type":"VEC4"},{"bufferView":34,"componentType":5126,"count":4,"max":[2.25],"min":[0],"type":"SCALAR"},{"bufferView":35,"componentType":5126,"count":4,"max":[0,0.18125000596046448,0],"min":[0,0,0],"type":"VEC3"},{"bufferView":36,"componentType":5126,"count":3,"max":[2.25],"min":[0],"type":"SCALAR"},{"bufferView":37,"componentType":5126,"count":3,"max":[1,1,1],"min":[1,0.75,1],"type":"VEC3"}],"materials":[{"pbrMetallicRoughness":{"metallicFactor":0,"roughnessFactor":1,"baseColorTexture":{"index":0}},"alphaMode":"MASK","alphaCutoff":0.05,"doubleSided":true}],"textures":[{"sampler":0,"source":0,"name":"000010.png"}],"samplers":[{"magFilter":9728,"minFilter":9728,"wrapS":33071,"wrapT":33071}],"images":[{"mimeType":"image/png","uri":"data:image/png;base64,"}],"meshes":[{"primitives":[{"mode":4,"attributes":{"POSITION":0,"NORMAL":1,"TEXCOORD_0":2},"indices":3,"material":0}]},{"primitives":[{"mode":4,"attributes":{"POSITION":4,"NORMAL":5,"TEXCOORD_0":6},"indices":7,"material":0}]},{"primitives":[{"mode":4,"attributes":{"POSITION":8,"NORMAL":9,"TEXCOORD_0":10},"indices":11,"material":0}]},{"primitives":[{"mode":4,"attributes":{"POSITION":12,"NORMAL":13,"TEXCOORD_0":14},"indices":15,"material":0}]}],"animations":[{"name":"default.new","samplers":[{"input":16,"output":17,"interpolation":"LINEAR"},{"input":18,"output":19,"interpolation":"LINEAR"},{"input":20,"output":21,"interpolation":"LINEAR"},{"input":22,"output":23,"interpolation":"LINEAR"},{"input":24,"output":25,"interpolation":"LINEAR"}],"channels":[{"sampler":0,"target":{"node":1,"path":"scale"}},{"sampler":1,"target":{"node":5,"path":"rotation"}},{"sampler":2,"target":{"node":5,"path":"translation"}},{"sampler":3,"target":{"node":7,"path":"rotation"}},{"sampler":4,"target":{"node":7,"path":"translation"}}]},{"name":"move.new","samplers":[{"input":26,"output":27,"interpolation":"LINEAR"},{"input":28,"output":29,"interpolation":"LINEAR"},{"input":30,"output":31,"interpolation":"LINEAR"},{"input":32,"output":33,"interpolation":"LINEAR"},{"input":34,"output":35,"interpolation":"LINEAR"},{"input":36,"output":37,"interpolation":"LINEAR"}],"channels":[{"sampler":0,"target":{"node":7,"path":"scale"}},{"sampler":1,"target":{"node":8,"path":"rotation"}},{"sampler":2,"target":{"node":8,"path":"translation"}},{"sampler":3,"target":{"node":9,"path":"rotation"}},{"sampler":4,"target":{"node":9,"path":"translation"}},{"sampler":5,"target":{"node":9,"path":"scale"}}]}]}