{"asset":{"version":"2.0","generator":"Blockbench 4.10.4 glTF exporter"},"scenes":[{"nodes":[18],"name":"blockbench_export"}],"scene":0,"nodes":[{"name":"cube","mesh":0},{"translation":[0,0.03125000000000001,0],"name":"bone","children":[0]},{"translation":[0,0.18750000000000008,0],"name":"cube","mesh":1},{"name":"nei","children":[2]},{"translation":[0.018749999999999933,-0.14375000000000004,0],"name":"cube","mesh":2},{"rotation":[0,0,-0.28401534470392265,0.958819734868193],"translation":[-0.0687500000000002,0,0],"name":"cube","mesh":3},{"rotation":[0,0,0.28401534470392265,0.958819734868193],"name":"cube","mesh":4},{"rotation":[-0.07604724560322063,0.3050611211170201,-0.4773807818724876,0.8205255132643974],"translation":[0.2812500000000002,0.1781250000000002,-0.031250000000000035],"name":"bone5","children":[4,5,6]},{"translation":[0,0.0625,0],"name":"cube","mesh":5},{"name":"bone2","children":[7,8]},{"translation":[0.01874999999999999,-0.14374999999999957,0],"name":"cube","mesh":6},{"rotation":[0,0,0.28401534470392265,0.958819734868193],"name":"cube","mesh":7},{"rotation":[0,0,-0.28401534470392265,0.958819734868193],"translation":[-0.06875000000000003,0,0],"name":"cube","mesh":8},{"rotation":[0.22027347477607293,0.007421093943518538,0.2586944625827691,0.9404795046697023],"translation":[-0.125,0.3781249999999998,0.1125],"name":"bone4","children":[10,11,12]},{"translation":[0,0.18750000000000008,0],"name":"cube","mesh":9},{"name":"bone3","children":[13,14]},{"name":"wai","children":[9,15]},{"name":"main","children":[1,3,16]},{"children":[17]}],"bufferViews":[{"buffer":0,"byteOffset":0,"byteLength":288,"target":34962,"byteStride":12},{"buffer":0,"byteOffset":288,"byteLength":288,"target":34962,"byteStride":12},{"buffer":0,"byteOffset":576,"byteLength":192,"target":34962,"byteStride":8},{"buffer":0,"byteOffset":768,"byteLength":72,"target":34963},{"buffer":0,"byteOffset":840,"byteLength":288,"target":34962,"byteStride":12},{"buffer":0,"byteOffset":1128,"byteLength":288,"target":34962,"byteStride":12},{"buffer":0,"byteOffset":1416,"byteLength":192,"target":34962,"byteStride":8},{"buffer":0,"byteOffset":1608,"byteLength":72,"target":34963},{"buffer":0,"byteOffset":1680,"byteLength":288,"target":34962,"byteStride":12},{"buffer":0,"byteOffset":1968,"byteLength":288,"target":34962,"byteStride":12},{"buffer":0,"byteOffset":2256,"byteLength":192,"target":34962,"byteStride":8},{"buffer":0,"byteOffset":2448,"byteLength":72,"target":34963},{"buffer":0,"byteOffset":2520,"byteLength":288,"target":34962,"byteStride":12},{"buffer":0,"byteOffset":2808,"byteLength":288,"target":34962,"byteStride":12},{"buffer":0,"byteOffset":3096,"byteLength":192,"target":34962,"byteStride":8},{"buffer":0,"byteOffset":3288,"byteLength":72,"target":34963},{"buffer":0,"byteOffset":3360,"byteLength":288,"target":34962,"byteStride":12},{"buffer":0,"byteOffset":3648,"byteLength":288,"target":34962,"byteStride":12},{"buffer":0,"byteOffset":3936,"byteLength":192,"target":34962,"byteStride":8},{"buffer":0,"byteOffset":4128,"byteLength":72,"target":34963},{"buffer":0,"byteOffset":4200,"byteLength":288,"target":34962,"byteStride":12},{"buffer":0,"byteOffset":4488,"byteLength":288,"target":34962,"byteStride":12},{"buffer":0,"byteOffset":4776,"byteLength":192,"target":34962,"byteStride":8},{"buffer":0,"byteOffset":4968,"byteLength":72,"target":34963},{"buffer":0,"byteOffset":5040,"byteLength":288,"target":34962,"byteStride":12},{"buffer":0,"byteOffset":5328,"byteLength":288,"target":34962,"byteStride":12},{"buffer":0,"byteOffset":5616,"byteLength":192,"target":34962,"byteStride":8},{"buffer":0,"byteOffset":5808,"byteLength":72,"target":34963},{"buffer":0,"byteOffset":5880,"byteLength":288,"target":34962,"byteStride":12},{"buffer":0,"byteOffset":6168,"byteLength":288,"target":34962,"byteStride":12},{"buffer":0,"byteOffset":6456,"byteLength":192,"target":34962,"byteStride":8},{"buffer":0,"byteOffset":6648,"byteLength":72,"target":34963},{"buffer":0,"byteOffset":6720,"byteLength":288,"target":34962,"byteStride":12},{"buffer":0,"byteOffset":7008,"byteLength":288,"target":34962,"byteStride":12},{"buffer":0,"byteOffset":7296,"byteLength":192,"target":34962,"byteStride":8},{"buffer":0,"byteOffset":7488,"byteLength":72,"target":34963},{"buffer":0,"byteOffset":7560,"byteLength":288,"target":34962,"byteStride":12},{"buffer":0,"byteOffset":7848,"byteLength":288,"target":34962,"byteStride":12},{"buffer":0,"byteOffset":8136,"byteLength":192,"target":34962,"byteStride":8},{"buffer":0,"byteOffset":8328,"byteLength":72,"target":34963},{"buffer":0,"byteOffset":8400,"byteLength":16},{"buffer":0,"byteOffset":8416,"byteLength":48},{"buffer":0,"byteOffset":8464,"byteLength":16},{"buffer":0,"byteOffset":8480,"byteLength":64},{"buffer":0,"byteOffset":8544,"byteLength":16},{"buffer":0,"byteOffset":8560,"byteLength":48},{"buffer":0,"byteOffset":8608,"byteLength":16},{"buffer":0,"byteOffset":8624,"byteLength":64},{"buffer":0,"byteOffset":8688,"byteLength":16},{"buffer":0,"byteOffset":8704,"byteLength":48},{"buffer":0,"byteOffset":8752,"byteLength":12},{"buffer":0,"byteOffset":8764,"byteLength":36},{"buffer":0,"byteOffset":8800,"byteLength":16},{"buffer":0,"byteOffset":8816,"byteLength":64},{"buffer":0,"byteOffset":8880,"byteLength":16},{"buffer":0,"byteOffset":8896,"byteLength":48},{"buffer":0,"byteOffset":8944,"byteLength":8},{"buffer":0,"byteOffset":8952,"byteLength":32},{"buffer":0,"byteOffset":8984,"byteLength":16},{"buffer":0,"byteOffset":9000,"byteLength":48},{"buffer":0,"byteOffset":9048,"byteLength":12},{"buffer":0,"byteOffset":9060,"byteLength":36}],"buffers":[{"byteLength":9096,"uri":"data:application/octet-stream;base64,"}],"accessors":[{"bufferView":0,"componentType":5126,"count":24,"max":[0.1875,0.03125,0.1875],"min":[-0.1875,-0.03125,-0.1875],"type":"VEC3"},{"bufferView":1,"componentType":5126,"count":24,"max":[1,1,1],"min":[-1,-1,-1],"type":"VEC3"},{"bufferView":2,"componentType":5126,"count":24,"max":[0.74951171875,0.21826171875],"min":[0.00048828125,0.00048828125],"type":"VEC2"},{"bufferView":3,"componentType":5123,"count":36,"max":[23],"min":[0],"type":"SCALAR"},{"bufferView":4,"componentType":5126,"count":24,"max":[0.12437500059604645,0.09375,0.14000000059604645],"min":[-0.12437500059604645,-0.12812499701976776,-0.12437500059604645],"type":"VEC3"},{"bufferView":5,"componentType":5126,"count":24,"max":[1,1,1],"min":[-1,-1,-1],"type":"VEC3"},{"bufferView":6,"componentType":5126,"count":24,"max":[0.93701171875,0.53076171875],"min":[0.50048828125,0.31298828125],"type":"VEC2"},{"bufferView":7,"componentType":5123,"count":36,"max":[23],"min":[0],"type":"SCALAR"},{"bufferView":8,"componentType":5126,"count":24,"max":[-0.04374999925494194,0.125,-0.04374999925494194],"min":[-0.0625,0,-0.0625],"type":"VEC3"},{"bufferView":9,"componentType":5126,"count":24,"max":[1,1,1],"min":[-1,-1,-1],"type":"VEC3"},{"bufferView":10,"componentType":5126,"count":24,"max":[0.25048828125,0.06201171875],"min":[0.24951171875,-0.00048828125],"type":"VEC2"},{"bufferView":11,"componentType":5123,"count":36,"max":[23],"min":[0],"type":"SCALAR"},{"bufferView":12,"componentType":5126,"count":24,"max":[0.06875000149011612,0.02500000037252903,-0.03750000149011612],"min":[0.04374999925494194,0,-0.06875000149011612],"type":"VEC3"},{"bufferView":13,"componentType":5126,"count":24,"max":[1,1,1],"min":[-1,-1,-1],"type":"VEC3"},{"bufferView":14,"componentType":5126,"count":24,"max":[0.25048828125,0.00048828125],"min":[0.24951171875,-0.00048828125],"type":"VEC2"},{"bufferView":15,"componentType":5123,"count":36,"max":[23],"min":[0],"type":"SCALAR"},{"bufferView":16,"componentType":5126,"count":24,"max":[-0.04374999925494194,0.02500000037252903,-0.03750000149011612],"min":[-0.06875000149011612,0,-0.06875000149011612],"type":"VEC3"},{"bufferView":17,"componentType":5126,"count":24,"max":[1,1,1],"min":[-1,-1,-1],"type":"VEC3"},{"bufferView":18,"componentType":5126,"count":24,"max":[0.25048828125,0.00048828125],"min":[0.24951171875,-0.00048828125],"type":"VEC2"},{"bufferView":19,"componentType":5123,"count":36,"max":[23],"min":[0],"type":"SCALAR"},{"bufferView":20,"componentType":5126,"count":24,"max":[0.15625,0.125,0.15625],"min":[-0.15625,0,-0.15625],"type":"VEC3"},{"bufferView":21,"componentType":5126,"count":24,"max":[1,1,1],"min":[-1,-1,-1],"type":"VEC3"},{"bufferView":22,"componentType":5126,"count":24,"max":[0.62451171875,0.43701171875],"min":[0.00048828125,0.21923828125],"type":"VEC2"},{"bufferView":23,"componentType":5123,"count":36,"max":[23],"min":[0],"type":"SCALAR"},{"bufferView":24,"componentType":5126,"count":24,"max":[-0.04374999925494194,0.125,-0.04374999925494194],"min":[-0.0625,-2.7755575615628914e-17,-0.0625],"type":"VEC3"},{"bufferView":25,"componentType":5126,"count":24,"max":[1,1,1],"min":[-1,-1,-1],"type":"VEC3"},{"bufferView":26,"componentType":5126,"count":24,"max":[0.25048828125,0.06201171875],"min":[0.24951171875,-0.00048828125],"type":"VEC2"},{"bufferView":27,"componentType":5123,"count":36,"max":[23],"min":[0],"type":"SCALAR"},{"bufferView":28,"componentType":5126,"count":24,"max":[-0.04374999925494194,0.02500000037252903,-0.03750000149011612],"min":[-0.06875000149011612,0,-0.06875000149011612],"type":"VEC3"},{"bufferView":29,"componentType":5126,"count":24,"max":[1,1,1],"min":[-1,-1,-1],"type":"VEC3"},{"bufferView":30,"componentType":5126,"count":24,"max":[0.25048828125,0.00048828125],"min":[0.24951171875,-0.00048828125],"type":"VEC2"},{"bufferView":31,"componentType":5123,"count":36,"max":[23],"min":[0],"type":"SCALAR"},{"bufferView":32,"componentType":5126,"count":24,"max":[0.06875000149011612,0.02500000037252903,-0.03750000149011612],"min":[0.04374999925494194,0,-0.06875000149011612],"type":"VEC3"},{"bufferView":33,"componentType":5126,"count":24,"max":[1,1,1],"min":[-1,-1,-1],"type":"VEC3"},{"bufferView":34,"componentType":5126,"count":24,"max":[0.25048828125,0.00048828125],"min":[0.24951171875,-0.00048828125],"type":"VEC2"},{"bufferView":35,"componentType":5123,"count":36,"max":[23],"min":[0],"type":"SCALAR"},{"bufferView":36,"componentType":5126,"count":24,"max":[0.15562500059604645,0.125,0.15562500059604645],"min":[-0.15562500059604645,-0.015625,-0.15562500059604645],"type":"VEC3"},{"bufferView":37,"componentType":5126,"count":24,"max":[1,1,1],"min":[-1,-1,-1],"type":"VEC3"},{"bufferView":38,"componentType":5126,"count":24,"max":[0.49951171875,0.62451171875],"min":[0.00048828125,0.43798828125],"type":"VEC2"},{"bufferView":39,"componentType":5123,"count":36,"max":[23],"min":[0],"type":"SCALAR"},{"bufferView":40,"componentType":5126,"count":4,"max":[3],"min":[0],"type":"SCALAR"},{"bufferView":41,"componentType":5126,"count":4,"max":[1,1,1],"min":[1,0.8899999856948853,1],"type":"VEC3"},{"bufferView":42,"componentType":5126,"count":4,"max":[3],"min":[0],"type":"SCALAR"},{"bufferView":43,"componentType":5126,"count":4,"max":[0,0,0.017452405765652657,1],"min":[0,0,-0.017452405765652657,0.9998477101325989],"type":"VEC4"},{"bufferView":44,"componentType":5126,"count":4,"max":[3],"min":[0],"type":"SCALAR"},{"bufferView":45,"componentType":5126,"count":4,"max":[0.0062500000931322575,0,0],"min":[0,0,0],"type":"VEC3"},{"bufferView":46,"componentType":5126,"count":4,"max":[3],"min":[0],"type":"SCALAR"},{"bufferView":47,"componentType":5126,"count":4,"max":[0,0,0.03489949554204941,1],"min":[0,0,-0.04361938685178757,0.9990482330322266],"type":"VEC4"},{"bufferView":48,"componentType":5126,"count":4,"max":[3],"min":[0],"type":"SCALAR"},{"bufferView":49,"componentType":5126,"count":4,"max":[0.012500000186264515,0,0],"min":[-0.012500000186264515,0,0],"type":"VEC3"},{"bufferView":50,"componentType":5126,"count":3,"max":[2.25],"min":[0],"type":"SCALAR"},{"bufferView":51,"componentType":5126,"count":3,"max":[1,1.100000023841858,1],"min":[1,1,1],"type":"VEC3"},{"bufferView":52,"componentType":5126,"count":4,"max":[2.25],"min":[0],"type":"SCALAR"},{"bufferView":53,"componentType":5126,"count":4,"max":[0.04361938685178757,0,0,1],"min":[-0.008726535364985466,0,0,0.9990482330322266],"type":"VEC4"},{"bufferView":54,"componentType":5126,"count":4,"max":[2.25],"min":[0],"type":"SCALAR"},{"bufferView":55,"componentType":5126,"count":4,"max":[0,0,0],"min":[0,-0.012500000186264515,0],"type":"VEC3"},{"bufferView":56,"componentType":5126,"count":2,"max":[2.25],"min":[0],"type":"SCALAR"},{"bufferView":57,"componentType":5126,"count":2,"max":[0,0,0,1],"min":[0,0,0,1],"type":"VEC4"},{"bufferView":58,"componentType":5126,"count":4,"max":[2.25],"min":[0],"type":"SCALAR"},{"bufferView":59,"componentType":5126,"count":4,"max":[0,0.18125000596046448,0],"min":[0,0,0],"type":"VEC3"},{"bufferView":60,"componentType":5126,"count":3,"max":[2.25],"min":[0],"type":"SCALAR"},{"bufferView":61,"componentType":5126,"count":3,"max":[1,1,1],"min":[1,0.75,1],"type":"VEC3"}],"materials":[{"pbrMetallicRoughness":{"metallicFactor":0,"roughnessFactor":1,"baseColorTexture":{"index":0}},"alphaMode":"MASK","alphaCutoff":0.05,"doubleSided":true}],"textures":[{"sampler":0,"source":0,"name":"000011.png"}],"samplers":[{"magFilter":9728,"minFilter":9728,"wrapS":33071,"wrapT":33071}],"images":[{"mimeType":"image/png","uri":"data:image/png;base64,"}],"meshes":[{"primitives":[{"mode":4,"attributes":{"POSITION":0,"NORMAL":1,"TEXCOORD_0":2},"indices":3,"material":0}]},{"primitives":[{"mode":4,"attributes":{"POSITION":4,"NORMAL":5,"TEXCOORD_0":6},"indices":7,"material":0}]},{"primitives":[{"mode":4,"attributes":{"POSITION":8,"NORMAL":9,"TEXCOORD_0":10},"indices":11,"material":0}]},{"primitives":[{"mode":4,"attributes":{"POSITION":12,"NORMAL":13,"TEXCOORD_0":14},"indices":15,"material":0}]},{"primitives":[{"mode":4,"attributes":{"POSITION":16,"NORMAL":17,"TEXCOORD_0":18},"indices":19,"material":0}]},{"primitives":[{"mode":4,"attributes":{"POSITION":20,"NORMAL":21,"TEXCOORD_0":22},"indices":23,"material":0}]},{"primitives":[{"mode":4,"attributes":{"POSITION":24,"NORMAL":25,"TEXCOORD_0":26},"indices":27,"material":0}]},{"primitives":[{"mode":4,"attributes":{"POSITION":28,"NORMAL":29,"TEXCOORD_0":30},"indices":31,"material":0}]},{"primitives":[{"mode":4,"attributes":{"POSITION":32,"NORMAL":33,"TEXCOORD_0":34},"indices":35,"material":0}]},{"primitives":[{"mode":4,"attributes":{"POSITION":36,"NORMAL":37,"TEXCOORD_0":38},"indices":39,"material":0}]}],"animations":[{"name":"default.new","samplers":[{"input":40,"output":41,"interpolation":"LINEAR"},{"input":42,"output":43,"interpolation":"LINEAR"},{"input":44,"output":45,"interpolation":"LINEAR"},{"input":46,"output":47,"interpolation":"LINEAR"},{"input":48,"output":49,"interpolation":"LINEAR"}],"channels":[{"sampler":0,"target":{"node":1,"path":"scale"}},{"sampler":1,"target":{"node":9,"path":"rotation"}},{"sampler":2,"target":{"node":9,"path":"translation"}},{"sampler":3,"target":{"node":15,"path":"rotation"}},{"sampler":4,"target":{"node":15,"path":"translation"}}]},{"name":"move.new","samplers":[{"input":50,"output":51,"interpolation":"LINEAR"},{"input":52,"output":53,"interpolation":"LINEAR"},{"input":54,"output":55,"interpolation":"LINEAR"},{"input":56,"output":57,"interpolation":"LINEAR"},{"input":58,"output":59,"interpolation":"LINEAR"},{"input":60,"output":61,"interpolation":"LINEAR"}],"channels":[{"sampler":0,"target":{"node":15,"path":"scale"}},{"sampler":1,"target":{"node":16,"path":"rotation"}},{"sampler":2,"target":{"node":16,"path":"translation"}},{"sampler":3,"target":{"node":17,"path":"rotation"}},{"sampler":4,"target":{"node":17,"path":"translation"}},{"sampler":5,"target":{"node":17,"path":"scale"}}]}]}